<svg width="41" height="41" viewBox="0 0 41 41" fill="none" xmlns="http://www.w3.org/2000/svg">
<circle cx="20.5" cy="20.5" r="20.5" fill="#26B8A1"/>
<path d="M29.6875 19.1438H14.1212L18.8856 13.2272C19.1084 12.9501 19.2156 12.5928 19.1836 12.234C19.1516 11.8751 18.983 11.5442 18.715 11.3138C18.447 11.0835 18.1014 10.9727 17.7544 11.0057C17.4073 11.0388 17.0872 11.2131 16.8644 11.4902L10.3019 19.6324C10.2577 19.6971 10.2182 19.7652 10.1837 19.8359C10.1837 19.9038 10.1838 19.9445 10.0919 20.0123C10.0324 20.1679 10.0012 20.3335 10 20.5008C10.0012 20.6682 10.0324 20.8338 10.0919 20.9894C10.0919 21.0572 10.0919 21.0979 10.1837 21.1658C10.2182 21.2365 10.2577 21.3046 10.3019 21.3693L16.8644 29.5115C16.9878 29.6647 17.1423 29.7878 17.317 29.8723C17.4917 29.9567 17.6822 30.0003 17.875 30C18.1817 30.0006 18.4789 29.8902 18.715 29.6879C18.8479 29.574 18.9578 29.4341 19.0383 29.2762C19.1188 29.1183 19.1684 28.9455 19.1843 28.7678C19.2001 28.59 19.1819 28.4108 19.1307 28.2404C19.0794 28.0699 18.9961 27.9116 18.8856 27.7745L14.1212 21.8579H29.6875C30.0356 21.8579 30.3694 21.7149 30.6156 21.4604C30.8617 21.2059 31 20.8608 31 20.5008C31 20.1409 30.8617 19.7958 30.6156 19.5413C30.3694 19.2868 30.0356 19.1438 29.6875 19.1438Z" fill="#F3F3F3"/>
</svg>
