<svg width="26" height="26" viewBox="0 0 26 26" fill="none" xmlns="http://www.w3.org/2000/svg">
    <path d="M13 26C14.7936 26 16.2485 24.5451 16.2485 22.75H9.75156C9.75156 24.5451 11.2064 26 13 26ZM23.9378 18.3975C22.9567 17.3433 21.121 15.7574 21.121 10.5625C21.121 6.6168 18.3544 3.4582 14.624 2.68328V1.625C14.624 0.727695 13.8968 0 13 0C12.1032 0 11.376 0.727695 11.376 1.625V2.68328C7.64566 3.4582 4.8791 6.6168 4.8791 10.5625C4.8791 15.7574 3.04336 17.3433 2.06226 18.3975C1.75757 18.7251 1.6225 19.1166 1.62504 19.5C1.63062 20.3328 2.28418 21.125 3.25511 21.125H22.745C23.7159 21.125 24.37 20.3328 24.375 19.5C24.3776 19.1166 24.2425 18.7246 23.9378 18.3975Z" fill="#00B8C3" />
</svg>
    