<svg width="14" height="18" viewBox="0 0 14 18" fill="none" xmlns="http://www.w3.org/2000/svg">
<path opacity="0.38" fill-rule="evenodd" clip-rule="evenodd" d="M0.410051 17.5606C0.1475 17.2793 0 16.8978 0 16.4999V9.00037C0 8.60253 0.1475 8.22099 0.410051 7.93967C0.672601 7.65835 1.0287 7.50031 1.4 7.50031H2.45V4.8752C2.45 3.58222 2.92937 2.34219 3.78266 1.42791C4.63595 0.513636 5.79326 0 7 0C8.20673 0 9.36405 0.513636 10.2173 1.42791C10.4323 1.65825 10.6073 1.91719 10.7488 2.19637C10.8293 2.27015 10.9131 2.37025 11 2.50065C11.5386 3.30856 11.5031 5.29503 11.4733 6.96466C11.47 7.14741 11.4668 7.32636 11.4644 7.49956H12.6C12.9713 7.49956 13.3274 7.6576 13.5899 7.93892C13.8525 8.22024 14 8.60178 14 8.99962V16.4999C14 16.8978 13.8525 17.2793 13.5899 17.5606C13.3274 17.842 12.9713 18 12.6 18H1.4C1.0287 18 0.672601 17.842 0.410051 17.5606ZM9.70189 7.49956C9.85281 6.21158 9.76187 4.47721 9.51594 3.55777C9.38128 3.26235 9.20098 2.98993 8.9799 2.75304C8.4548 2.19041 7.74261 1.87433 7 1.87433C6.25739 1.87433 5.5452 2.19041 5.0201 2.75304C4.495 3.31568 4.2 4.07877 4.2 4.87445V7.49956H9.70189ZM5.783 10.8836C5.66311 11.1095 5.60005 11.3649 5.6 11.6247L5.5986 11.6255C5.59882 11.8762 5.6576 12.1228 5.7696 12.3429C5.8816 12.563 6.04325 12.7496 6.2398 12.8855L5.9493 14.8139C5.9493 14.9629 6.00454 15.1057 6.10286 15.2111C6.20119 15.3165 6.33455 15.3756 6.4736 15.3756H7.525C7.66405 15.3756 7.79741 15.3165 7.89574 15.2111C7.99406 15.1057 8.0493 14.9621 8.0493 14.8131C7.8953 13.7706 7.7588 12.8855 7.7588 12.8855L7.7644 12.8818C7.96759 12.7399 8.1329 12.5439 8.24412 12.3129C8.35534 12.082 8.40866 11.8241 8.39886 11.5644C8.38905 11.3048 8.31646 11.0523 8.18819 10.8317C8.05993 10.6112 7.88038 10.4301 7.66716 10.3063C7.45393 10.1824 7.21433 10.1201 6.97185 10.1253C6.72936 10.1305 6.4923 10.2032 6.28389 10.3361C6.07549 10.469 5.90289 10.6577 5.783 10.8836Z" fill="#F3F3F3"/>
</svg>
