<svg width="46" height="46" viewBox="0 0 46 46" fill="none" xmlns="http://www.w3.org/2000/svg">
<circle cx="23" cy="23" r="23" fill="#7B61FF"/>
<path d="M12.9011 26.8819L11.5342 32.7813C11.4871 32.9969 11.4887 33.2204 11.5389 33.4354C11.5892 33.6503 11.6869 33.8513 11.8248 34.0237C11.9627 34.1961 12.1373 34.3355 12.336 34.4317C12.5347 34.5279 12.7523 34.5786 12.9731 34.5799C13.076 34.5903 13.1796 34.5903 13.2825 34.5799L19.2179 33.213L30.6138 21.8601L24.254 15.5146L12.9011 26.8819Z" fill="white"/>
<path d="M34.1966 16.1782L29.9518 11.9335C29.6728 11.6559 29.2951 11.5 28.9014 11.5C28.5078 11.5 28.1301 11.6559 27.8511 11.9335L25.4913 14.2933L31.844 20.646L34.2037 18.2862C34.3418 18.1474 34.4512 17.9828 34.5256 17.8016C34.6 17.6205 34.6379 17.4265 34.6373 17.2307C34.6366 17.0349 34.5973 16.8412 34.5217 16.6606C34.4461 16.48 34.3356 16.3161 34.1966 16.1782Z" fill="white"/>
</svg>
