<svg width="26" height="26" viewBox="0 0 26 26" fill="none" xmlns="http://www.w3.org/2000/svg">
    <path d="M24.375 17.4688V23.1562C24.3754 23.3164 24.3442 23.4751 24.2831 23.6231C24.2219 23.7712 24.1322 23.9057 24.0189 24.0189C23.9057 24.1322 23.7712 24.2219 23.6231 24.283C23.4751 24.3442 23.3164 24.3754 23.1563 24.375H17.4688C16.3825 24.375 15.8392 23.0598 16.6055 22.293L18.4438 20.4547L13 15.0109L7.55473 20.4598L9.39454 22.293C10.1608 23.0598 9.61747 24.375 8.53125 24.375H2.84375C2.68359 24.3754 2.52493 24.3442 2.37688 24.283C2.22884 24.2219 2.09432 24.1322 1.98107 24.0189C1.86782 23.9057 1.77806 23.7712 1.71696 23.6231C1.65585 23.4751 1.6246 23.3164 1.625 23.1562V17.4688C1.625 16.382 2.93973 15.8387 3.70704 16.6055L5.54481 18.4438L10.9921 13L5.5443 7.55117L3.70704 9.39453C2.94024 10.1613 1.625 9.61797 1.625 8.53125V2.84375C1.6246 2.68359 1.65585 2.52493 1.71696 2.37688C1.77806 2.22883 1.86782 2.09432 1.98107 1.98107C2.09432 1.86782 2.22884 1.77806 2.37688 1.71695C2.52493 1.65585 2.68359 1.6246 2.84375 1.625H8.53125C9.61747 1.625 10.1608 2.94023 9.39454 3.70703L7.55625 5.54531L13 10.9891L18.4453 5.54023L16.6055 3.70703C15.8392 2.94023 16.3825 1.625 17.4688 1.625H23.1563C23.3164 1.6246 23.4751 1.65585 23.6231 1.71695C23.7712 1.77806 23.9057 1.86782 24.0189 1.98107C24.1322 2.09432 24.2219 2.22883 24.2831 2.37688C24.3442 2.52493 24.3754 2.68359 24.375 2.84375V8.53125C24.375 9.61797 23.0603 10.1613 22.293 9.39453L20.4552 7.55625L15.0079 13L20.4557 18.4488L22.293 16.6105C23.0598 15.8387 24.375 16.382 24.375 17.4688Z" fill="#00B8C3" />
</svg>
    