<svg width="25" height="18" viewBox="0 0 25 18" fill="none" xmlns="http://www.w3.org/2000/svg">
<path d="M16.2869 8.53116C16.2869 9.55963 15.8784 10.546 15.1511 11.2732C14.4239 12.0004 13.4376 12.409 12.4091 12.409C11.3806 12.409 10.3943 12.0004 9.66704 11.2732C8.93981 10.546 8.53125 9.55963 8.53125 8.53116C8.53125 7.50269 8.93981 6.51635 9.66704 5.78911C10.3943 5.06188 11.3806 4.65332 12.4091 4.65332C13.4376 4.65332 14.4239 5.06188 15.1511 5.78911C15.8784 6.51635 16.2869 7.50269 16.2869 8.53116Z" fill="#7B61FF"/>
<path d="M0 8.53125C0 8.53125 4.65341 0 12.4091 0C20.1648 0 24.8182 8.53125 24.8182 8.53125C24.8182 8.53125 20.1648 17.0625 12.4091 17.0625C4.65341 17.0625 0 8.53125 0 8.53125ZM12.4091 13.9602C13.8489 13.9602 15.2298 13.3882 16.248 12.3701C17.2661 11.352 17.8381 9.9711 17.8381 8.53125C17.8381 7.0914 17.2661 5.71051 16.248 4.69238C15.2298 3.67425 13.8489 3.10227 12.4091 3.10227C10.9692 3.10227 9.58836 3.67425 8.57022 4.69238C7.55209 5.71051 6.98011 7.0914 6.98011 8.53125C6.98011 9.9711 7.55209 11.352 8.57022 12.3701C9.58836 13.3882 10.9692 13.9602 12.4091 13.9602Z" fill="#7B61FF"/>
</svg>
