<svg width="24" height="18" viewBox="0 0 24 18" fill="none" xmlns="http://www.w3.org/2000/svg">
<path d="M20.8152 2.33487C19.9187 0.77829 18.2752 0 16.4823 0H7.5177C5.72478 0 4.08127 0.77829 3.18481 2.33487C-0.251625 7.7829 -0.998675 16.0328 1.39189 17.745C3.78245 19.4572 9.16121 11.9857 12 11.9857C14.8388 11.9857 20.0681 19.4572 22.6081 17.745C24.9987 16.0328 24.2516 7.7829 20.8152 2.33487ZM9.0118 7.7829H7.5177V9.33948H6.0236V7.7829H4.5295V6.22632H6.0236V4.66974H7.5177V6.22632H9.0118V7.7829ZM17.0799 8.56119C17.0799 9.33948 16.4823 9.96211 15.7353 9.96211C14.9882 9.96211 14.3906 9.33948 14.3906 8.56119C14.3906 7.7829 14.9882 7.16027 15.7353 7.16027C16.4823 7.16027 17.0799 7.7829 17.0799 8.56119ZM19.9187 5.44803C19.9187 6.22632 19.3211 6.84895 18.574 6.84895C17.827 6.84895 17.2294 6.22632 17.2294 5.44803C17.2294 4.66974 17.827 4.04711 18.574 4.04711C19.3211 4.04711 19.9187 4.66974 19.9187 5.44803Z" fill="#F5F5F7"/>
</svg>
