<svg width="284" height="70" viewBox="0 0 284 70" fill="none" xmlns="http://www.w3.org/2000/svg">
<g clip-path="url(#clip0_16_209)">
<path d="M258.003 29.7167V27.0551L274.926 9.63491H259.691V5.32313H284V7.71856L266.853 25.1254H284V29.7167H258.003ZM112.679 9.54176H91.5759V14.7984H106.625C108.999 14.7984 110.582 15.211 111.426 16.0227C112.271 16.8345 112.745 18.365 112.745 20.5741V23.9543C112.745 26.1634 112.336 27.6805 111.426 28.5056C110.516 29.3307 108.999 29.73 106.625 29.73H86.5902V25.1254H107.694V19.5361H92.6047C90.2437 19.5361 88.6478 19.1235 87.83 18.3117C87.0123 17.4999 86.5902 15.9828 86.5902 13.7604V11.0988C86.5902 8.87636 87.0123 7.35925 87.83 6.54746C88.6478 5.73567 90.2437 5.32313 92.6047 5.32313H112.679V9.54176ZM120.699 11.0456C120.522 9.42858 120.965 7.8046 121.939 6.50754C122.769 5.69575 124.352 5.2832 126.7 5.2832H144.519C146.88 5.2832 148.476 5.69575 149.307 6.50754C150.138 7.31932 150.547 8.83643 150.547 11.0456V23.9543C150.547 26.19 150.138 27.7072 149.307 28.5056C148.476 29.3041 146.88 29.73 144.519 29.73H126.7C124.352 29.73 122.743 29.3174 121.939 28.5056C121.134 27.6938 120.699 26.19 120.699 23.9543V11.0456ZM126.331 25.1254H144.915V9.63491H126.331V25.1254ZM159.199 29.7167V5.32313H164.871V25.1254H183.033V29.7167H159.199ZM188.019 29.7167V5.32313H192.569L203.978 20.095L215.137 5.32313H219.634V29.7167H214.438V14.6387V13.5208L214.636 11.9771L213.831 13.5475L213.224 14.5456L204.123 26.749H203.002L193.888 14.5323C193.545 14.0665 193.268 13.6273 193.031 13.2015C192.807 12.816 192.609 12.4158 192.437 12.0037L192.543 13.3345V14.5456V29.7167H188.019ZM234.539 19.9619H245.156L239.881 10.0208L234.539 19.9619ZM223.697 29.7167L237.414 5.32313H242.835L256.737 29.7566H250.406L247.491 24.4334H232.138L229.316 29.7566L223.697 29.7167Z" fill="#001689"/>
<path d="M259.837 64.7166V58.9676H277.972V55.96H265.891C263.609 55.96 262.066 55.5341 261.169 54.6292C260.662 53.996 260.284 53.2678 260.058 52.4867C259.832 51.7055 259.761 50.8868 259.85 50.0778V47.7889C259.761 46.9799 259.832 46.1612 260.058 45.3801C260.284 44.5989 260.662 43.8707 261.169 43.2375C262.066 42.3459 263.609 41.9067 265.891 41.9067H284.04V47.3763H265.825V50.0379H277.893C280.201 50.0379 281.758 50.4771 282.655 51.3687C283.162 52.0019 283.539 52.73 283.765 53.5112C283.992 54.2924 284.063 55.1111 283.974 55.92V58.8079C284.063 59.6168 283.992 60.4355 283.765 61.2167C283.539 61.9979 283.162 62.7261 282.655 63.3592C281.758 64.2375 280.201 64.69 277.893 64.69L259.837 64.7166ZM232.508 64.7166V58.9676H250.604V55.96H238.509C236.227 55.96 234.684 55.5341 233.8 54.6292C233.293 53.996 232.916 53.2678 232.689 52.4867C232.463 51.7055 232.392 50.8868 232.481 50.0778V47.7889C232.392 46.9799 232.463 46.1612 232.689 45.3801C232.916 44.5989 233.293 43.8707 233.8 43.2375C234.684 42.3459 236.227 41.9067 238.509 41.9067H256.658V47.3763H238.482V50.0379H250.604C252.296 49.8595 253.993 50.3351 255.352 51.3687C255.861 52.0003 256.241 52.7284 256.467 53.51C256.694 54.2916 256.763 55.111 256.671 55.92V58.8079C256.763 59.6169 256.694 60.4363 256.467 61.218C256.241 61.9996 255.861 62.7276 255.352 63.3592C253.993 64.3929 252.296 64.8684 250.604 64.69L232.508 64.7166ZM206.128 64.7166V41.92H229.395V47.2432H212.683V50.5702H222.272V55.8934H212.683V58.8611H229.329V64.6102L206.128 64.7166ZM86.6561 64.7166V41.92H109.857V47.2432H93.2114V50.5702H102.879V55.8934H93.2114V58.8611H109.857V64.6102L86.6561 64.7166ZM144.374 64.7166H135.3L130.802 60.0988L135.3 55.4942L144.374 64.7166ZM144.374 41.9334H135.471L130.815 46.671L135.3 51.2356L144.374 41.9334ZM121.952 41.9334H113.009L120.923 50.0512H109.857V56.6121H120.976L113.062 64.7166H122.136L133.216 53.3649L121.952 41.9334ZM193.361 56.7984H193.611C198.452 56.7984 199.177 53.6843 199.177 51.8212V46.8972C199.177 45.0341 198.452 41.92 193.611 41.92H174.855V64.7166H181.45V56.7318H184.8L193.189 64.7166H202.976L193.361 56.7984ZM192.714 50.2642C192.735 50.4512 192.707 50.6405 192.633 50.8133C192.559 50.9861 192.442 51.1363 192.292 51.2489C191.947 51.3778 191.578 51.4322 191.211 51.4086H181.437V47.4162H191.211C191.578 47.3927 191.947 47.4471 192.292 47.5759C192.442 47.6886 192.559 47.8388 192.633 48.0116C192.707 48.1844 192.735 48.3737 192.714 48.5607V50.2642ZM166.19 41.92H147.447V64.7166H154.042V56.5322H166.19C171.044 56.5322 171.756 53.4181 171.756 51.5683V46.8972C171.716 45.0341 171.004 41.92 166.19 41.92ZM165.293 50.2508C165.317 50.4368 165.292 50.6258 165.22 50.7987C165.148 50.9716 165.032 51.1223 164.884 51.2356C164.534 51.3663 164.161 51.4208 163.789 51.3953H154.029V47.4029H163.789C164.161 47.3775 164.534 47.4319 164.884 47.5626C165.032 47.6759 165.148 47.8266 165.22 47.9996C165.292 48.1725 165.317 48.3615 165.293 48.5474V50.2508Z" fill="#00B8C3"/>
<path d="M60.8308 0H69.7602V60.9905C69.7602 63.38 68.8194 65.6716 67.1448 67.3612C65.4702 69.0508 63.199 70 60.8308 70H0V9.00951C0 6.62004 0.940774 4.32843 2.61536 2.63882C4.28995 0.949213 6.56118 0 8.92941 0L60.8308 0ZM60.8308 1.92966H8.92941C7.06841 1.92966 5.28363 2.67557 3.96771 4.0033C2.65178 5.33103 1.9125 7.13181 1.9125 9.00951V68.0703H60.8308C62.6918 68.0703 64.4765 67.3244 65.7925 65.9967C67.1084 64.669 67.8477 62.8682 67.8477 60.9905V1.92966H60.8308ZM34.6888 35.0532L45.2406 34.8935C47.7216 34.6895 50.2055 35.2511 52.363 36.5038C54.8276 37.8705 56.789 40.0036 57.9554 42.5856C59.2744 45.5532 60.1713 52.4068 55.4494 56.9848C50.7275 61.5627 46.1638 61.2167 46.1638 61.2167H9.89225V48.5875H52.9565L34.6888 35.0532L24.1371 35.1996C21.6556 35.4105 19.1697 34.8485 17.0147 33.5894C14.5332 32.226 12.557 30.0873 11.3827 27.4943C10.0637 24.5266 9.16682 17.673 13.8887 13.0951C18.6106 8.51711 23.1215 8.91635 23.1215 8.91635H59.4986V21.5057H16.4343L34.6888 35.0532Z" fill="#001689"/>
</g>
<defs>
<clipPath id="clip0_16_209">
<rect width="284" height="70" fill="white"/>
</clipPath>
</defs>
</svg>
