<svg width="40" height="40" viewBox="0 0 40 40" fill="none" xmlns="http://www.w3.org/2000/svg">
<path d="M29.5327 18.1717C32.6843 22.444 33.6577 26.1513 33.0701 26.7412C32.4801 27.3265 28.7749 26.3555 24.4979 23.204L11.9595 35.744C21.4574 39.9141 33.803 31.1654 36.022 28.9465C38.1208 26.8546 36.2421 21.4389 31.8108 15.8915L29.5327 18.1717V18.1717ZM16.9762 15.3288C14.4826 11.5671 13.7293 8.47009 14.267 7.93237C14.7957 7.40146 17.8974 8.15018 21.6571 10.6482L23.9783 8.32261C18.8413 4.52455 14.0061 3.02711 12.0502 4.98966C9.9446 7.09062 1.95779 18.3237 4.71914 27.5806L16.9762 15.3288V15.3288ZM39.3347 0.665231C39.1242 0.45435 38.8741 0.28705 38.5989 0.172902C38.3236 0.0587547 38.0286 0 37.7306 0C37.4326 0 37.1375 0.0587547 36.8622 0.172902C36.587 0.28705 36.3369 0.45435 36.1264 0.665231L0.664469 36.1274C0.239017 36.5528 0 37.1298 0 37.7315C0 38.3331 0.239017 38.9101 0.664469 39.3356C1.08992 39.761 1.66696 40 2.26864 40C2.87032 40 3.44736 39.761 3.87281 39.3356L39.3347 3.87339C39.5456 3.66287 39.7129 3.41283 39.8271 3.13758C39.9412 2.86234 40 2.56729 40 2.26931C40 1.97133 39.9412 1.67628 39.8271 1.40104C39.7129 1.12579 39.5456 0.875753 39.3347 0.665231V0.665231Z" fill="#fff"/>
</svg>
