<svg width="14" height="18" viewBox="0 0 14 18" fill="none" xmlns="http://www.w3.org/2000/svg">
<path d="M0 16.4999C0 16.8978 0.1475 17.2793 0.410051 17.5606C0.672601 17.842 1.0287 18 1.4 18H12.6C12.9713 18 13.3274 17.842 13.5899 17.5606C13.8525 17.2793 14 16.8978 14 16.4999V8.99962C14 8.60178 13.8525 8.22024 13.5899 7.93892C13.3274 7.6576 12.9713 7.49956 12.6 7.49956H4.2V4.87445C4.2 4.07877 4.495 3.31568 5.0201 2.75304C5.5452 2.19041 6.25739 1.87433 7 1.87433C7.74261 1.87433 8.4548 2.19041 8.9799 2.75304C9.505 3.31568 9.8 4.07877 9.8 4.87445V5.08596C9.8 5.33461 9.89219 5.57308 10.0563 5.7489C10.2204 5.92473 10.4429 6.0235 10.675 6.0235C10.9071 6.0235 11.1296 5.92473 11.2937 5.7489C11.4578 5.57308 11.55 5.33461 11.55 5.08596V5.06121V5.06271V4.8752C11.55 3.58222 11.0706 2.34219 10.2173 1.42791C9.36405 0.513636 8.20673 0 7 0C5.79326 0 4.63595 0.513636 3.78266 1.42791C2.92937 2.34219 2.45 3.58222 2.45 4.8752V7.50031H1.4C1.0287 7.50031 0.672601 7.65835 0.410051 7.93967C0.1475 8.22099 0 8.60253 0 9.00037L0 16.4999ZM5.6 11.6247C5.60005 11.3649 5.66311 11.1095 5.783 10.8836C5.90289 10.6577 6.07549 10.469 6.28389 10.3361C6.4923 10.2032 6.72936 10.1305 6.97185 10.1253C7.21433 10.1201 7.45393 10.1824 7.66716 10.3063C7.88038 10.4301 8.05993 10.6112 8.18819 10.8317C8.31646 11.0523 8.38905 11.3048 8.39886 11.5644C8.40866 11.8241 8.35534 12.082 8.24412 12.3129C8.1329 12.5439 7.96759 12.7399 7.7644 12.8818L7.7588 12.8855C7.7588 12.8855 7.8953 13.7706 8.0493 14.8131C8.0493 14.9621 7.99406 15.1057 7.89574 15.2111C7.79741 15.3165 7.66405 15.3756 7.525 15.3756H6.4736C6.33455 15.3756 6.20119 15.3165 6.10286 15.2111C6.00454 15.1057 5.9493 14.9629 5.9493 14.8139L6.2398 12.8855C6.04325 12.7496 5.8816 12.563 5.7696 12.3429C5.6576 12.1228 5.59882 11.8762 5.5986 11.6255L5.6 11.6247Z" fill="white"/>
</svg>
