<svg width="16" height="22" viewBox="0 0 16 22" fill="none" xmlns="http://www.w3.org/2000/svg">
<path d="M0 3.29969V18.6997C0 18.9914 0.112381 19.2712 0.31242 19.4775C0.512458 19.6838 0.783769 19.7997 1.06667 19.7997H4.26667V17.5997H2.13333V4.39969H4.26667V2.1997H1.06667C0.783769 2.1997 0.512458 2.31559 0.31242 2.52188C0.112381 2.72817 0 3.00796 0 3.29969ZM15.1915 2.2327L6.65813 0.0326962C6.50093 -0.00773897 6.33685 -0.0107102 6.17836 0.024008C6.01988 0.0587262 5.87114 0.130222 5.74344 0.233067C5.61575 0.335913 5.51245 0.467406 5.44139 0.617567C5.37033 0.767727 5.33338 0.932608 5.33333 1.0997V20.8997C5.33296 21.0669 5.36964 21.232 5.44058 21.3824C5.51151 21.5328 5.61482 21.6645 5.74262 21.7674C5.87043 21.8703 6.01934 21.9418 6.17801 21.9763C6.33667 22.0109 6.50089 22.0076 6.65813 21.9667L15.1915 19.7667C15.4223 19.7073 15.6273 19.57 15.7738 19.3767C15.9203 19.1834 15.9999 18.9451 16 18.6997V3.29969C15.9999 3.05433 15.9203 2.81602 15.7738 2.62269C15.6273 2.42935 15.4223 2.29207 15.1915 2.2327ZM10.6667 11.2065C10.6544 11.4897 10.5366 11.7571 10.3379 11.9531C10.1392 12.149 9.87492 12.2584 9.6 12.2584C9.32508 12.2584 9.06075 12.149 8.86206 11.9531C8.66337 11.7571 8.54562 11.4897 8.53333 11.2065V10.7918C8.53347 10.5001 8.64599 10.2203 8.84613 10.0141C9.04627 9.80795 9.31764 9.69219 9.60053 9.69234C9.88343 9.69249 10.1547 9.80852 10.3546 10.0149C10.5546 10.2213 10.6668 10.5012 10.6667 10.7929V11.2065Z" fill="#F5F5F7"/>
</svg>
