<svg width="16" height="21" viewBox="0 0 16 21" fill="none" xmlns="http://www.w3.org/2000/svg">
<path d="M0 3.14971V17.8497C0 18.1282 0.112381 18.3952 0.31242 18.5922C0.512458 18.7891 0.783769 18.8997 1.06667 18.8997H4.26667V16.7997H2.13333V4.19971H4.26667V2.09971H1.06667C0.783769 2.09971 0.512458 2.21033 0.31242 2.40725C0.112381 2.60416 0 2.87123 0 3.14971ZM15.1915 2.13121L6.65813 0.03121C6.50093 -0.0073872 6.33685 -0.0102234 6.17836 0.0229167C6.01988 0.0560569 5.87114 0.124302 5.74344 0.222473C5.61575 0.320644 5.51245 0.446161 5.44139 0.589496C5.37033 0.73283 5.33338 0.890217 5.33333 1.04971V19.9497C5.33296 20.1093 5.36964 20.2669 5.44058 20.4105C5.51151 20.554 5.61482 20.6797 5.74262 20.778C5.87043 20.8762 6.01934 20.9444 6.17801 20.9774C6.33667 21.0104 6.50089 21.0072 6.65813 20.9682L15.1915 18.8682C15.4223 18.8115 15.6273 18.6805 15.7738 18.4959C15.9203 18.3114 15.9999 18.0839 16 17.8497V3.14971C15.9999 2.91549 15.9203 2.68802 15.7738 2.50347C15.6273 2.31892 15.4223 2.18789 15.1915 2.13121ZM10.6667 10.6971C10.6544 10.9675 10.5366 11.2227 10.3379 11.4098C10.1392 11.5968 9.87492 11.7012 9.6 11.7012C9.32508 11.7012 9.06075 11.5968 8.86206 11.4098C8.66337 11.2227 8.54562 10.9675 8.53333 10.6971V10.3013C8.53347 10.0228 8.64599 9.75576 8.84613 9.55894C9.04627 9.36213 9.31764 9.25164 9.60053 9.25178C9.88343 9.25192 10.1547 9.36268 10.3546 9.55969C10.5546 9.7567 10.6668 10.0238 10.6667 10.3023V10.6971Z" fill="#7B61FF"/>
</svg>
