<svg width="22" height="22" viewBox="0 0 22 22" fill="none" xmlns="http://www.w3.org/2000/svg">
<g clip-path="url(#clip0_64_193)">
<path d="M21.9506 0.942983C22.0006 0.818045 22.0128 0.681178 21.9858 0.549348C21.9587 0.417518 21.8936 0.296523 21.7984 0.201364C21.7033 0.106205 21.5823 0.0410669 21.4504 0.0140241C21.3186 -0.0130186 21.1817 -0.000776317 21.0568 0.0492334L1.05468 8.05036H1.0533L0.431804 8.29786C0.314091 8.34481 0.211647 8.42339 0.135788 8.52491C0.0599298 8.62643 0.0136091 8.74695 0.00194286 8.87314C-0.00972338 8.99934 0.0137189 9.1263 0.0696802 9.24001C0.125642 9.35372 0.211944 9.44974 0.319054 9.51748L0.882804 9.87498L0.884179 9.87773L7.7523 14.2475L12.1221 21.1156L12.1248 21.1184L12.4823 21.6821C12.5503 21.7888 12.6463 21.8747 12.76 21.9303C12.8736 21.9859 13.0004 22.0091 13.1263 21.9973C13.2522 21.9855 13.3725 21.9392 13.4738 21.8634C13.5751 21.7877 13.6536 21.6854 13.7006 21.568L21.9506 0.942983ZM19.4302 3.54173L9.12593 13.846L8.8303 13.3812C8.77614 13.2959 8.70384 13.2237 8.61855 13.1695L8.1538 12.8739L18.4581 2.56961L20.0778 1.92198L19.4316 3.54173H19.4302Z" fill="white"/>
</g>
<defs>
<clipPath id="clip0_64_193">
<rect width="22" height="22" fill="white"/>
</clipPath>
</defs>
</svg>
