<svg width="14" height="16" viewBox="0 0 14 16" fill="none" xmlns="http://www.w3.org/2000/svg">
<path d="M4.725 0C4.58576 0 4.45223 0.0549687 4.35377 0.152814C4.25531 0.250659 4.2 0.383365 4.2 0.521739C4.2 0.660113 4.25531 0.792819 4.35377 0.890665C4.45223 0.98851 4.58576 1.04348 4.725 1.04348H9.275C9.41424 1.04348 9.54777 0.98851 9.64623 0.890665C9.74469 0.792819 9.8 0.660113 9.8 0.521739C9.8 0.383365 9.74469 0.250659 9.64623 0.152814C9.54777 0.0549687 9.41424 0 9.275 0H4.725ZM0 9.04348C0 5.20139 3.1339 2.08696 7 2.08696C10.8661 2.08696 14 5.20139 14 9.04348C14 12.8856 10.8661 16 7 16C3.1339 16 0 12.8856 0 9.04348ZM7.525 5.04348C7.525 4.9051 7.46969 4.7724 7.37123 4.67455C7.27277 4.57671 7.13924 4.52174 7 4.52174C6.86076 4.52174 6.72723 4.57671 6.62877 4.67455C6.53031 4.7724 6.475 4.9051 6.475 5.04348V9.21739C6.475 9.35577 6.53031 9.48847 6.62877 9.58632C6.72723 9.68416 6.86076 9.73913 7 9.73913C7.13924 9.73913 7.27277 9.68416 7.37123 9.58632C7.46969 9.48847 7.525 9.35577 7.525 9.21739V5.04348ZM12.054 2.24C12.1524 2.1423 12.2859 2.08742 12.425 2.08742C12.5641 2.08742 12.6976 2.1423 12.796 2.24L13.846 3.28348C13.9387 3.38238 13.9892 3.5132 13.9868 3.64836C13.9844 3.78353 13.9293 3.91249 13.8331 4.00808C13.7369 4.10368 13.6072 4.15843 13.4712 4.16082C13.3352 4.1632 13.2035 4.11303 13.104 4.02087L12.054 2.97739C11.9557 2.87957 11.9005 2.74696 11.9005 2.6087C11.9005 2.47043 11.9557 2.33783 12.054 2.24Z" fill="#F5F5F7"/>
</svg>
