<svg width="16" height="16" viewBox="0 0 16 16" fill="none" xmlns="http://www.w3.org/2000/svg">
<path d="M2.9634 3.67034L0.14662 0.854564C0.100136 0.80808 0.0632624 0.752895 0.0381053 0.69216C0.0129482 0.631426 4.89791e-10 0.566331 0 0.500592C-4.89792e-10 0.434853 0.0129482 0.369758 0.0381053 0.309024C0.0632624 0.248289 0.100136 0.193104 0.14662 0.14662C0.193104 0.100136 0.248289 0.0632624 0.309024 0.0381053C0.369758 0.0129482 0.434853 -4.89792e-10 0.500592 0C0.566331 4.89791e-10 0.631426 0.0129482 0.69216 0.0381053C0.752895 0.0632624 0.80808 0.100136 0.854564 0.14662L15.8534 15.1454C15.9473 15.2393 16 15.3666 16 15.4994C16 15.6322 15.9473 15.7595 15.8534 15.8534C15.7595 15.9473 15.6322 16 15.4994 16C15.3666 16 15.2393 15.9473 15.1454 15.8534L12.8296 13.5376C12.203 14.273 11.431 14.8708 10.562 15.2933C9.69311 15.7158 8.74611 15.9538 7.78069 15.9923C6.81526 16.0309 5.85231 15.8691 4.95247 15.5172C4.05262 15.1654 3.23537 14.631 2.55217 13.9478C1.86896 13.2646 1.3346 12.4473 0.982736 11.5475C0.630867 10.6476 0.469108 9.6847 0.507644 8.71927C0.54618 7.75385 0.784175 6.80685 1.20665 5.93792C1.62912 5.06898 2.22691 4.29692 2.9624 3.67034H2.9634ZM8 8.70694L7.00008 7.70702V9.49988C7.00008 9.63248 7.05275 9.75965 7.14651 9.85341C7.24027 9.94717 7.36744 9.99984 7.50004 9.99984C7.63264 9.99984 7.7598 9.94717 7.85357 9.85341C7.94733 9.75965 8 9.63248 8 9.49988V8.70694ZM8 4.50028V5.87917L13.9185 11.7967C14.4814 10.5073 14.6427 9.07816 14.3813 7.69572C14.1199 6.31329 13.4479 5.04172 12.4531 4.04687C11.4582 3.05201 10.1867 2.38006 8.80424 2.11865C7.4218 1.85724 5.99267 2.01851 4.70326 2.58143L7.00008 4.88025V4.50028C7.00008 4.36768 7.05275 4.24051 7.14651 4.14675C7.24027 4.05299 7.36744 4.00032 7.50004 4.00032C7.63264 4.00032 7.7598 4.05299 7.85357 4.14675C7.94733 4.24051 8 4.36768 8 4.50028ZM5.00024 0.500592C5.00024 0.367994 5.05291 0.240827 5.14667 0.147067C5.24043 0.0533059 5.3676 0.000631521 5.5002 0.000631521H9.49988C9.63248 0.000631521 9.75965 0.0533059 9.85341 0.147067C9.94717 0.240827 9.99984 0.367994 9.99984 0.500592C9.99984 0.63319 9.94717 0.760357 9.85341 0.854117C9.75965 0.947878 9.63248 1.00055 9.49988 1.00055H5.5002C5.3676 1.00055 5.24043 0.947878 5.14667 0.854117C5.05291 0.760357 5.00024 0.63319 5.00024 0.500592ZM12.4496 1.92948C12.5434 1.83606 12.6703 1.7836 12.8026 1.7836C12.9349 1.7836 13.0619 1.83606 13.1556 1.92948L14.5695 3.34337C14.6172 3.38949 14.6553 3.44466 14.6815 3.50565C14.7077 3.56665 14.7215 3.63225 14.7221 3.69864C14.7227 3.76502 14.71 3.83086 14.6849 3.8923C14.6597 3.95374 14.6226 4.00957 14.5757 4.05651C14.5287 4.10345 14.4729 4.14057 14.4115 4.16571C14.35 4.19085 14.2842 4.2035 14.2178 4.20292C14.1514 4.20235 14.0858 4.18856 14.0248 4.16235C13.9638 4.13615 13.9087 4.09806 13.8625 4.05031L12.4496 2.63642C12.3559 2.54267 12.3033 2.41552 12.3033 2.28295C12.3033 2.15038 12.3559 2.02324 12.4496 1.92948Z" fill="#9099B1"/>
</svg>
