<svg width="42" height="43" viewBox="0 0 42 43" fill="none" xmlns="http://www.w3.org/2000/svg">
<path d="M8.05438 10.5483C5.46096 13.1333 -5.87655 29.2952 3.91925 39.0833C13.7104 48.8738 29.8765 37.5401 32.4745 34.9504C35.0656 32.3654 31.7002 24.7973 24.9578 18.0586C18.2108 11.3152 10.6478 7.94934 8.05438 10.5483V10.5483ZM29.4674 32.7027C28.7 33.4604 22.7758 31.6469 17.0689 25.9385C11.3666 20.2347 9.54293 14.3115 10.3103 13.5492C11.0685 12.7822 16.9996 14.6049 22.6995 20.3087C28.411 26.0078 30.2301 31.9357 29.4674 32.7027V32.7027ZM31.4506 13.8194L35.8515 9.41629C36.2849 8.98311 36.5284 8.3956 36.5284 7.783C36.5284 7.17041 36.2849 6.5829 35.8515 6.14972C35.4181 5.71655 34.8303 5.4732 34.2173 5.4732C33.6044 5.4732 33.0166 5.71655 32.5832 6.14972L28.1822 10.5529C27.7488 10.9861 27.5053 11.5736 27.5053 12.1862C27.5053 12.4895 27.5651 12.7898 27.6812 13.0701C27.7974 13.3503 27.9676 13.605 28.1822 13.8194C28.3968 14.0339 28.6516 14.2041 28.932 14.3201C29.2124 14.4362 29.5129 14.496 29.8164 14.496C30.4293 14.496 31.0172 14.2526 31.4506 13.8194ZM21.4883 8.77868C21.7536 8.92613 22.0454 9.01991 22.3469 9.05467C22.6485 9.08942 22.954 9.06447 23.2459 8.98124C23.5378 8.898 23.8104 8.75812 24.0482 8.56957C24.286 8.38102 24.4844 8.1475 24.6319 7.88234L27.1444 3.43298C27.4423 2.89749 27.5152 2.26564 27.347 1.67644C27.1788 1.08723 26.7833 0.588936 26.2476 0.291168C25.7118 -0.00660046 25.0796 -0.0794492 24.4901 0.0886473C23.9005 0.256744 23.402 0.652016 23.104 1.18751L20.5915 5.63687C20.444 5.90202 20.3502 6.19361 20.3154 6.495C20.2806 6.79639 20.3056 7.10168 20.3889 7.39342C20.4721 7.68517 20.6121 7.95767 20.8007 8.19535C20.9894 8.43303 21.223 8.63125 21.4883 8.77868V8.77868ZM41.7086 15.7461C41.5614 15.4807 41.3631 15.247 41.1254 15.0583C40.8876 14.8696 40.6149 14.7296 40.3229 14.6463C40.0309 14.563 39.7254 14.5382 39.4237 14.5731C39.1221 14.608 38.8303 14.702 38.5651 14.8498L34.081 17.3008C33.8157 17.4483 33.582 17.6465 33.3934 17.8842C33.2047 18.1219 33.0648 18.3944 32.9815 18.6861C32.8982 18.9779 32.8733 19.2831 32.908 19.5845C32.9428 19.8859 33.0366 20.1775 33.1841 20.4427C33.3317 20.7078 33.53 20.9413 33.7678 21.1299C34.0056 21.3184 34.2783 21.4583 34.5702 21.5415C34.8621 21.6248 35.1675 21.6497 35.4691 21.615C35.7706 21.5802 36.0624 21.4864 36.3277 21.339L40.8118 18.8879C41.0771 18.7405 41.3108 18.5423 41.4994 18.3046C41.6881 18.0669 41.828 17.7944 41.9113 17.5027C41.9946 17.2109 42.0196 16.9056 41.9848 16.6042C41.95 16.3029 41.8562 16.0113 41.7086 15.7461V15.7461Z" fill="#fff"/>
</svg>
